<!DOCTYPE svg PUBLIC "-//W3C//DTD SVG 20010904//EN" "http://www.w3.org/TR/2001/REC-SVG-20010904/DTD/svg10.dtd">
<svg version="1.0" xmlns="http://www.w3.org/2000/svg" width="512px" height="512px" viewBox="0 0 5120 5120" preserveAspectRatio="xMidYMid meet">
<g id="layer1" fill="#000000" stroke="none">
 <path d="M1859 5107 c-14 -7 -34 -19 -44 -27 -9 -8 -87 -154 -171 -325 -168 -338 -233 -448 -620 -1045 -564 -868 -643 -1020 -644 -1229 0 -217 125 -391 337 -468 139 -50 285 -39 423 33 85 44 122 80 320 308 l165 189 5 -1074 c5 -1071 5 -1074 27 -1126 71 -173 208 -299 361 -332 72 -15 224 -13 295 4 166 39 333 223 367 404 5 29 10 189 10 354 l0 300 32 -7 c191 -38 355 9 487 141 37 38 74 79 83 93 l15 24 54 -18 c81 -27 210 -32 289 -11 129 33 245 115 318 225 22 33 42 65 44 71 3 8 19 6 58 -5 66 -20 206 -21 275 -2 178 47 335 206 380 383 14 55 16 151 12 790 l-3 728 -27 135 c-56 292 -109 503 -227 915 -143 495 -151 515 -220 563 l-33 22 -1171 -1 c-870 0 -1178 -4 -1197 -12z m2220 -554 c133 -453 233 -855 265 -1076 13 -90 16 -216 16 -765 0 -638 -1 -658 -20 -690 -61 -100 -211 -95 -262 8 -16 31 -18 69 -18 323 0 308 -3 332 -53 386 -30 32 -94 61 -137 61 -49 0 -118 -37 -154 -83 l-31 -39 -5 -456 c-6 -514 -3 -498 -83 -542 -71 -41 -157 -15 -202 61 -19 32 -20 57 -25 369 -6 377 -6 377 -81 427 -83 55 -196 35 -257 -45 l-27 -35 -5 -456 c-6 -505 -4 -494 -72 -543 -24 -17 -47 -23 -85 -23 -56 0 -90 18 -127 69 -20 26 -21 44 -26 369 -3 239 -9 348 -17 363 -22 39 -91 93 -128 100 -84 15 -141 -7 -199 -80 l-31 -38 -5 -877 c-5 -823 -6 -879 -23 -904 -32 -49 -75 -69 -139 -64 -59 3 -94 24 -121 72 -9 15 -13 365 -17 1335 -6 1474 2 1343 -80 1413 -65 56 -158 58 -225 5 -15 -12 -184 -200 -375 -418 -355 -405 -370 -420 -438 -420 -39 0 -108 37 -120 66 -16 34 -15 76 3 139 22 74 246 445 587 971 263 406 354 549 431 679 16 28 86 161 154 298 l123 247 974 0 973 0 62 -207z"/>
 </g>

</svg>