<!DOCTYPE svg PUBLIC "-//W3C//DTD SVG 20010904//EN" "http://www.w3.org/TR/2001/REC-SVG-20010904/DTD/svg10.dtd">
<svg version="1.0" xmlns="http://www.w3.org/2000/svg" width="298px" height="403px" viewBox="0 0 2980 4030" preserveAspectRatio="xMidYMid meet">
<g id="layer1" fill="#cdcdcd" stroke="none">
 <path d="M1142 4014 c-245 -24 -528 -111 -787 -240 -192 -96 -208 -109 -217 -172 -9 -61 -37 -120 -83 -177 -32 -39 -33 -43 -35 -145 -2 -58 -7 -201 -13 -318 -12 -262 -4 -325 56 -415 50 -75 157 -163 267 -221 47 -24 164 -78 260 -119 267 -114 426 -194 454 -228 30 -35 42 -78 52 -176 l7 -73 -35 -38 c-82 -91 -163 -235 -188 -335 -10 -37 -17 -46 -40 -50 -15 -4 -40 -16 -54 -29 -24 -20 -29 -38 -46 -143 -27 -164 -26 -200 5 -230 13 -14 29 -25 36 -25 7 0 9 -11 5 -35 -4 -19 -7 -81 -7 -138 -1 -234 81 -420 240 -540 80 -60 157 -88 256 -95 60 -4 89 -11 116 -27 86 -55 285 -52 399 5 207 104 374 323 401 525 10 73 6 216 -7 272 -5 17 1 25 25 37 59 31 63 54 36 222 -22 134 -27 151 -51 172 -14 13 -39 25 -55 29 -24 4 -29 12 -38 53 -22 103 -87 215 -180 312 l-45 48 11 98 c17 152 28 165 216 256 83 40 206 97 272 125 218 95 343 160 417 220 113 89 156 151 177 252 10 50 9 65 -8 120 -14 46 -21 107 -26 214 -11 260 -18 302 -69 405 -24 49 -56 104 -69 120 -27 31 -67 128 -67 159 0 37 -41 69 -152 118 -384 171 -651 225 -1101 222 -111 -1 -262 -8 -335 -15z"/>
 </g>

</svg>