<!DOCTYPE svg PUBLIC "-//W3C//DTD SVG 20010904//EN" "http://www.w3.org/TR/2001/REC-SVG-20010904/DTD/svg10.dtd">
<svg version="1.0" xmlns="http://www.w3.org/2000/svg" width="148px" height="141px" viewBox="0 0 1480 1410" preserveAspectRatio="xMidYMid meet">
<g id="layer1" fill="#544e4e" stroke="none">
 <path d="M295 1145 l-35 -36 0 -407 0 -408 28 -32 c17 -21 41 -36 67 -42 52 -12 718 -12 770 0 24 5 51 21 68 40 l27 30 0 410 0 409 -35 36 -36 35 -409 0 -409 0 -36 -35z m793 -302 l2 -203 -25 0 c-24 0 -25 2 -25 63 0 161 -138 297 -300 297 -162 0 -300 -136 -300 -297 0 -61 -1 -63 -25 -63 l-25 0 0 198 c0 109 3 202 7 205 4 4 160 6 347 5 l341 -3 3 -202z m-256 0 c72 -43 97 -159 50 -235 -26 -42 -91 -78 -142 -78 -48 0 -116 36 -139 73 -59 96 -17 226 82 256 42 13 111 5 149 -16z m246 -342 c9 -5 12 -28 10 -77 l-3 -69 -69 -3 c-82 -4 -86 0 -86 80 0 44 4 59 18 67 21 12 112 14 130 2z"/>
 </g>
<g id="layer2" fill="#dbd4d4" stroke="none">
 <path d="M540 1395 c-78 -16 -141 -42 -216 -90 -112 -72 -227 -201 -276 -311 -64 -146 -64 -432 0 -578 65 -146 225 -301 379 -367 153 -65 473 -65 626 0 154 66 314 221 379 367 64 146 64 432 0 578 -65 146 -225 301 -379 367 -110 47 -363 64 -513 34z m634 -261 l26 -27 0 -407 c0 -459 3 -442 -75 -460 -52 -12 -718 -12 -770 0 -77 18 -75 4 -75 461 l0 406 26 27 27 26 407 0 407 0 27 -26z"/>
 <path d="M386 1051 c-14 -16 -16 -43 -14 -222 l3 -204 40 0 40 0 6 80 c8 123 53 195 150 244 88 44 170 44 258 0 97 -49 142 -121 150 -244 l6 -80 40 0 40 0 3 204 c2 179 0 206 -14 222 -16 18 -39 19 -354 19 -315 0 -338 -1 -354 -19z"/>
 <path d="M682 879 c-47 -14 -109 -80 -122 -130 -33 -122 73 -250 196 -236 175 19 231 246 85 343 -42 27 -111 38 -159 23z"/>
 <path d="M950 523 c-28 -10 -40 -37 -40 -93 0 -84 15 -100 99 -100 89 0 101 12 101 103 0 57 -3 68 -22 81 -22 16 -105 21 -138 9z"/>
 </g>

</svg>