<!DOCTYPE svg PUBLIC "-//W3C//DTD SVG 20010904//EN" "http://www.w3.org/TR/2001/REC-SVG-20010904/DTD/svg10.dtd">
<svg version="1.0" xmlns="http://www.w3.org/2000/svg" width="270px" height="398px" viewBox="0 0 2700 3980" preserveAspectRatio="xMidYMid meet">
<g id="layer1" fill="#cdcdcd" stroke="none">
 <path d="M1228 3848 c-559 -703 -978 -1426 -1143 -1972 -51 -167 -55 -188 -70 -361 -31 -355 21 -617 172 -864 168 -277 433 -491 732 -591 234 -79 628 -79 862 0 432 144 782 524 882 955 29 124 37 312 22 496 -14 166 -22 205 -76 382 -118 385 -366 866 -707 1367 -212 312 -524 720 -552 720 -9 0 -62 -57 -122 -132z m257 -1953 c116 -24 228 -86 316 -174 115 -115 169 -225 189 -383 37 -300 -148 -591 -440 -688 -88 -30 -240 -37 -337 -17 -297 64 -507 326 -506 632 1 180 60 321 188 451 63 64 98 90 165 123 139 68 279 87 425 56z"/>
 </g>

</svg>