<!DOCTYPE svg PUBLIC "-//W3C//DTD SVG 20010904//EN" "http://www.w3.org/TR/2001/REC-SVG-20010904/DTD/svg10.dtd">
<svg version="1.0" xmlns="http://www.w3.org/2000/svg" width="391px" height="512px" viewBox="0 0 3910 5120" preserveAspectRatio="xMidYMid meet">
<g id="layer1" fill="#000000" stroke="none">
 <path d="M254 5105 c-65 -20 -96 -40 -145 -92 -63 -66 -87 -115 -99 -206 -14 -108 -14 -4386 0 -4494 12 -91 36 -140 99 -206 51 -53 80 -72 150 -93 69 -21 2333 -21 2402 0 70 21 99 40 150 93 54 57 80 100 100 168 21 75 21 4495 0 4570 -20 68 -46 111 -100 168 -51 53 -80 72 -150 93 -65 20 -2344 19 -2407 -1z m2353 -186 c38 -14 82 -57 102 -99 13 -30 16 -87 19 -372 l3 -338 -1271 0 -1271 0 3 338 c4 360 5 371 56 426 55 58 -8 55 1209 56 769 0 1131 -3 1150 -11z m123 -2614 l0 -1605 -1270 0 -1270 0 0 1605 0 1605 1270 0 1270 0 0 -1605z m-3 -1889 c-3 -46 -12 -99 -20 -117 -17 -41 -61 -84 -100 -98 -40 -15 -2254 -15 -2294 0 -39 14 -83 57 -100 98 -8 18 -17 71 -20 117 l-6 84 1273 0 1273 0 -6 -84z"/>
 <path d="M1383 4870 c-135 -28 -250 -152 -272 -292 -19 -118 22 -232 113 -316 138 -125 334 -125 472 0 91 84 132 198 113 316 -17 112 -99 220 -202 267 -59 27 -160 39 -224 25z m147 -212 c141 -72 89 -288 -70 -288 -116 0 -191 132 -133 233 20 35 92 77 133 77 14 0 46 -10 70 -22z"/>
 <path d="M1051 409 c-41 -41 -42 -86 -2 -131 l29 -33 212 0 212 0 29 33 c42 47 36 103 -15 144 -18 15 -47 18 -228 18 l-206 0 -31 -31z"/>
 <path d="M1649 411 c-38 -39 -40 -96 -5 -134 30 -33 61 -41 138 -35 53 4 65 9 89 36 40 45 39 90 -2 131 -29 29 -35 31 -111 31 -75 0 -81 -2 -109 -29z"/>
 <path d="M3511 3138 c-65 -43 -65 -102 -2 -171 260 -285 283 -726 54 -1026 -26 -35 -60 -79 -75 -99 -38 -48 -37 -85 6 -128 51 -51 83 -47 153 19 72 68 165 209 204 310 17 44 37 119 45 166 26 163 12 433 -29 547 -63 173 -217 385 -292 399 -22 5 -39 0 -64 -17z"/>
 <path d="M3163 2975 c-39 -17 -69 -71 -59 -108 3 -14 26 -48 49 -76 60 -70 94 -136 117 -227 44 -172 6 -341 -111 -487 -27 -33 -52 -72 -56 -85 -9 -37 22 -91 62 -108 46 -19 86 -3 138 55 185 205 237 514 132 774 -48 116 -161 259 -215 271 -14 3 -40 -1 -57 -9z"/>
 </g>

</svg>